<svg width="44" height="44" viewBox="0 0 44 44" fill="none" xmlns="http://www.w3.org/2000/svg">
<g id="Orion_men">
<path id="layer1" d="M34.3754 35.0625C27.5004 33.7563 27.5004 31.625 27.5004 30.25V29.425C29.2455 27.7913 30.4861 25.6918 31.0754 23.375H31.1441C33.2066 23.375 33.7566 19.0438 33.7566 18.3563C33.7566 17.6688 33.8254 15.125 31.6941 15.125C36.1629 2.75004 24.1316 -2.19996 15.0566 4.12504C11.3441 4.12504 11.0004 9.62504 12.3754 15.125C10.2441 15.125 10.3129 17.7375 10.3129 18.3563C10.3129 18.975 10.7941 23.375 12.9254 23.375C13.5147 25.6918 14.7553 27.7913 16.5004 29.425V30.25C16.5004 31.625 16.5004 33.825 9.62539 35.0625C7.70121 35.4027 5.91945 36.3009 4.50156 37.6455C3.08368 38.99 2.09221 40.7216 1.65039 42.625H42.3504C41.8924 40.7294 40.8958 39.0068 39.4808 37.6649C38.0657 36.3231 36.2926 35.4193 34.3754 35.0625Z" fill="white"/>
</g>
</svg>
